<svg width="1275" height="761" viewBox="0 0 1275 761" fill="none" xmlns="http://www.w3.org/2000/svg">
<path d="M33.0756 371.447C14.8062 371.447 0 356.675 0 338.447C0 320.219 14.8062 305.446 33.0756 305.446C36.1589 305.446 39.1427 305.866 41.9729 306.655C49.4144 292.839 64.0308 283.447 80.8489 283.447C102.767 283.447 120.946 299.397 124.368 320.3C137.117 321.825 146.995 332.655 146.995 345.781C146.995 359.958 135.476 371.447 121.271 371.447H33.0756Z" fill="url(#paint0_linear_1_225)"/>
<path d="M58.0201 411.447L59.1481 408.015H65.1241L66.2521 411.447H69.2041L63.4441 394.887H60.8041L55.0441 411.447H58.0201ZM62.1241 398.919L64.3321 405.615H59.9161L62.1241 398.919ZM77.4535 405.399C81.2935 405.399 83.5495 403.479 83.5495 400.119C83.5495 396.711 81.2695 394.887 77.4535 394.887H71.8135V411.447H74.5975V405.399H77.4535ZM74.5975 402.999V397.311H77.1655C79.7095 397.311 80.7655 398.319 80.7655 400.119C80.7655 402.015 79.7095 402.999 77.1655 402.999H74.5975ZM89.6903 394.887H86.9063V411.447H89.6903V394.887Z" fill="white"/>
<path d="M725.196 323.668L725.948 321.38H729.932L730.684 323.668H732.652L728.812 312.628H727.052L723.212 323.668H725.196ZM727.932 315.316L729.404 319.78H726.46L727.932 315.316ZM738.151 319.636C740.711 319.636 742.215 318.356 742.215 316.116C742.215 313.844 740.695 312.628 738.151 312.628H734.391V323.668H736.247V319.636H738.151ZM736.247 318.036V314.244H737.959C739.655 314.244 740.359 314.916 740.359 316.116C740.359 317.38 739.655 318.036 737.959 318.036H736.247ZM746.309 312.628H744.453V323.668H746.309V312.628Z" fill="white"/>
<path d="M1044 297.55C1044 298.286 1044.61 298.894 1045.34 298.894C1046.08 298.894 1046.69 298.286 1046.69 297.55C1046.69 296.814 1046.08 296.206 1045.34 296.206C1044.61 296.206 1044 296.814 1044 297.55ZM1058.78 291.966V303.006H1065.28V302.142H1059.71V297.726H1064.8V296.862H1059.71V292.83H1065.28V291.966H1058.78ZM1072.62 301.31C1072.17 302.014 1071.42 302.286 1070.6 302.286C1068.84 302.286 1068.11 301.15 1068.11 299.566V298.414C1068.11 296.686 1069.02 295.726 1070.6 295.726C1071.4 295.726 1072.16 296.014 1072.6 296.622L1073.31 296.142C1072.72 295.326 1071.77 294.91 1070.6 294.91C1068.49 294.91 1067.23 296.142 1067.23 298.414V299.566C1067.23 301.822 1068.46 303.102 1070.6 303.102C1071.85 303.102 1072.8 302.654 1073.32 301.806L1072.62 301.31ZM1081.3 299.582V298.414C1081.3 296.142 1080.1 294.91 1078.05 294.91C1076 294.91 1074.8 296.142 1074.8 298.414V299.582C1074.8 301.822 1075.99 303.102 1078.05 303.102C1080.19 303.102 1081.3 301.758 1081.3 299.582ZM1080.42 299.582C1080.42 301.262 1079.6 302.286 1078.05 302.286C1076.43 302.286 1075.68 301.262 1075.68 299.582V298.414C1075.68 296.67 1076.51 295.726 1078.05 295.726C1079.57 295.726 1080.42 296.67 1080.42 298.414V299.582ZM1083.62 303.006H1084.5V298.206C1084.5 296.734 1085.2 295.742 1086.51 295.742C1087.67 295.742 1088.43 296.542 1088.43 298.286V303.006H1089.31V298.094C1089.31 296.686 1090.05 295.742 1091.33 295.742C1092.48 295.742 1093.25 296.542 1093.25 298.286V303.006H1094.13V298.27C1094.13 296.094 1093.11 294.91 1091.43 294.91C1090.32 294.91 1089.44 295.47 1088.99 296.478C1088.58 295.454 1087.75 294.91 1086.61 294.91C1085.55 294.91 1084.83 295.358 1084.5 296.094V295.006H1083.62V303.006ZM1096.85 303.006H1097.73V298.206C1097.73 296.734 1098.43 295.742 1099.74 295.742C1100.9 295.742 1101.66 296.542 1101.66 298.286V303.006H1102.54V298.094C1102.54 296.686 1103.28 295.742 1104.56 295.742C1105.71 295.742 1106.48 296.542 1106.48 298.286V303.006H1107.36V298.27C1107.36 296.094 1106.34 294.91 1104.66 294.91C1103.55 294.91 1102.67 295.47 1102.22 296.478C1101.81 295.454 1100.98 294.91 1099.84 294.91C1098.78 294.91 1098.06 295.358 1097.73 296.094V295.006H1096.85V303.006ZM1115.85 299.23V298.414C1115.85 296.142 1114.77 294.91 1112.77 294.91C1110.77 294.91 1109.68 296.142 1109.68 298.414V299.566C1109.68 301.79 1110.91 303.102 1113.04 303.102C1114.33 303.102 1115.21 302.686 1115.77 301.806L1115.07 301.31C1114.62 301.998 1113.97 302.286 1112.99 302.286C1111.29 302.286 1110.56 301.15 1110.56 299.566V299.23H1115.85ZM1110.56 298.414C1110.56 296.686 1111.31 295.726 1112.77 295.726C1114.22 295.726 1114.97 296.67 1114.97 298.414V298.43H1110.56V298.414ZM1121.12 295.742C1121.83 295.742 1122.31 296.014 1122.72 296.558L1123.46 296.014C1122.93 295.31 1122.24 294.91 1121.2 294.91C1120.2 294.91 1119.52 295.358 1119.19 296.094V295.006H1118.31V303.006H1119.19V298.19C1119.19 296.734 1119.88 295.742 1121.12 295.742ZM1129.91 301.31C1129.46 302.014 1128.71 302.286 1127.89 302.286C1126.13 302.286 1125.39 301.15 1125.39 299.566V298.414C1125.39 296.686 1126.31 295.726 1127.89 295.726C1128.69 295.726 1129.44 296.014 1129.89 296.622L1130.59 296.142C1130 295.326 1129.06 294.91 1127.89 294.91C1125.78 294.91 1124.51 296.142 1124.51 298.414V299.566C1124.51 301.822 1125.75 303.102 1127.89 303.102C1129.14 303.102 1130.08 302.654 1130.61 301.806L1129.91 301.31ZM1138.26 299.23V298.414C1138.26 296.142 1137.18 294.91 1135.18 294.91C1133.18 294.91 1132.09 296.142 1132.09 298.414V299.566C1132.09 301.79 1133.32 303.102 1135.45 303.102C1136.74 303.102 1137.62 302.686 1138.18 301.806L1137.48 301.31C1137.03 301.998 1136.38 302.286 1135.4 302.286C1133.7 302.286 1132.97 301.15 1132.97 299.566V299.23H1138.26ZM1132.97 298.414C1132.97 296.686 1133.72 295.726 1135.18 295.726C1136.63 295.726 1137.38 296.67 1137.38 298.414V298.43H1132.97V298.414ZM1151.61 298.414C1151.61 296.142 1150.48 294.91 1148.49 294.91C1147.28 294.91 1146.53 295.294 1146.08 296.014V295.006H1145.2V306.046H1146.08V302.062C1146.53 302.766 1147.28 303.102 1148.49 303.102C1150.57 303.102 1151.61 301.758 1151.61 299.566V298.414ZM1148.43 302.286C1146.67 302.286 1146.09 301.214 1146.08 299.71V298.318C1146.08 296.75 1146.73 295.726 1148.43 295.726C1149.95 295.726 1150.73 296.67 1150.73 298.414V299.566C1150.73 301.246 1149.97 302.286 1148.43 302.286ZM1153.93 300.574C1153.93 302.238 1154.49 303.038 1156.33 303.038V302.206C1154.94 302.206 1154.81 301.47 1154.81 300.35V291.966H1153.93V300.574ZM1158.29 300.718C1158.29 302.254 1159.3 303.102 1161.07 303.102C1162.1 303.102 1162.9 302.862 1163.34 302.014V303.006H1164.22V297.47C1164.22 295.518 1163.3 294.91 1161.34 294.91C1159.92 294.91 1159.12 295.246 1158.56 296.19L1159.23 296.654C1159.74 295.806 1160.37 295.742 1161.33 295.742C1162.8 295.742 1163.34 296.11 1163.34 297.47V298.462H1161.01C1159.36 298.462 1158.29 299.182 1158.29 300.718ZM1163.34 300.03C1163.34 301.822 1162.37 302.27 1161.07 302.27C1159.95 302.27 1159.17 301.854 1159.17 300.734C1159.17 299.886 1159.63 299.246 1161.01 299.246H1163.34V300.03ZM1166.25 295.822H1167.27V300.542C1167.27 302.206 1167.78 303.006 1169.56 303.006H1170.12V302.158H1169.59C1168.29 302.158 1168.15 301.582 1168.15 300.302V295.822H1170.12V295.006H1168.15V293.246H1167.27V295.006H1166.25V295.822ZM1171.65 295.006V295.822H1172.67V303.006H1173.55V295.822H1175.31V295.006H1173.55V294.654C1173.55 293.422 1173.68 292.814 1174.96 292.814H1175.31V291.966H1174.94C1173.18 291.966 1172.67 292.75 1172.67 294.43V295.006H1171.65ZM1183.33 299.582V298.414C1183.33 296.142 1182.13 294.91 1180.09 294.91C1178.04 294.91 1176.84 296.142 1176.84 298.414V299.582C1176.84 301.822 1178.02 303.102 1180.09 303.102C1182.23 303.102 1183.33 301.758 1183.33 299.582ZM1182.45 299.582C1182.45 301.262 1181.64 302.286 1180.09 302.286C1178.47 302.286 1177.72 301.262 1177.72 299.582V298.414C1177.72 296.67 1178.55 295.726 1180.09 295.726C1181.61 295.726 1182.45 296.67 1182.45 298.414V299.582ZM1188.47 295.742C1189.18 295.742 1189.66 296.014 1190.07 296.558L1190.81 296.014C1190.28 295.31 1189.59 294.91 1188.55 294.91C1187.54 294.91 1186.87 295.358 1186.54 296.094V295.006H1185.66V303.006H1186.54V298.19C1186.54 296.734 1187.22 295.742 1188.47 295.742ZM1192.32 303.006H1193.2V298.206C1193.2 296.734 1193.91 295.742 1195.22 295.742C1196.37 295.742 1197.14 296.542 1197.14 298.286V303.006H1198.02V298.094C1198.02 296.686 1198.75 295.742 1200.03 295.742C1201.19 295.742 1201.95 296.542 1201.95 298.286V303.006H1202.83V298.27C1202.83 296.094 1201.81 294.91 1200.13 294.91C1199.03 294.91 1198.15 295.47 1197.7 296.478C1197.28 295.454 1196.45 294.91 1195.31 294.91C1194.26 294.91 1193.54 295.358 1193.2 296.094V295.006H1192.32V303.006ZM1213.25 304.158C1211.33 302.702 1210.99 301.838 1210.99 300.11V294.766C1210.99 293.038 1211.33 292.19 1213.25 290.718L1212.7 290.014C1210.51 291.662 1210.11 292.686 1210.11 294.462V300.414C1210.11 302.19 1210.51 303.214 1212.7 304.862L1213.25 304.158ZM1222.3 293.678C1221.53 292.462 1220.45 291.87 1218.73 291.87C1216.25 291.87 1215.25 293.166 1215.25 294.718C1215.25 296.686 1216.65 297.486 1218.72 297.886C1220.8 298.286 1221.57 298.926 1221.57 300.254C1221.57 301.326 1220.83 302.238 1218.86 302.238C1217.21 302.238 1216.45 301.63 1215.76 300.766L1215.01 301.294C1215.82 302.494 1217.1 303.102 1218.86 303.102C1221.5 303.102 1222.49 301.63 1222.49 300.222C1222.49 298.142 1221.12 297.502 1219.04 297.054C1217.44 296.702 1216.17 296.302 1216.17 294.718C1216.17 293.358 1217.18 292.734 1218.7 292.734C1220.22 292.734 1220.99 293.358 1221.57 294.206L1222.3 293.678ZM1224.91 303.006H1225.79V298.206C1225.79 296.734 1226.55 295.742 1228.05 295.742C1229.3 295.742 1230.21 296.462 1230.21 298.286V303.006H1231.09V298.27C1231.09 296.014 1229.92 294.91 1228.15 294.91C1226.96 294.91 1226.23 295.326 1225.79 296.094V291.966H1224.91V303.006ZM1239.91 299.582V298.414C1239.91 296.142 1238.71 294.91 1236.66 294.91C1234.62 294.91 1233.42 296.142 1233.42 298.414V299.582C1233.42 301.822 1234.6 303.102 1236.66 303.102C1238.81 303.102 1239.91 301.758 1239.91 299.582ZM1239.03 299.582C1239.03 301.262 1238.22 302.286 1236.66 302.286C1235.05 302.286 1234.3 301.262 1234.3 299.582V298.414C1234.3 296.67 1235.13 295.726 1236.66 295.726C1238.18 295.726 1239.03 296.67 1239.03 298.414V299.582ZM1248.65 298.414C1248.65 296.142 1247.51 294.91 1245.53 294.91C1244.31 294.91 1243.56 295.294 1243.11 296.014V295.006H1242.23V306.046H1243.11V302.062C1243.56 302.766 1244.31 303.102 1245.53 303.102C1247.61 303.102 1248.65 301.758 1248.65 299.566V298.414ZM1245.47 302.286C1243.71 302.286 1243.13 301.214 1243.11 299.71V298.318C1243.11 296.75 1243.77 295.726 1245.47 295.726C1246.99 295.726 1247.77 296.67 1247.77 298.414V299.566C1247.77 301.246 1247 302.286 1245.47 302.286ZM1251.2 303.006H1252.08V295.006H1251.2V303.006ZM1251.11 293.038H1252.18V291.966H1251.11V293.038ZM1254.33 295.006V295.822H1255.36V303.006H1256.24V295.822H1258V295.006H1256.24V294.654C1256.24 293.422 1256.37 292.814 1257.65 292.814H1258V291.966H1257.63C1255.87 291.966 1255.36 292.75 1255.36 294.43V295.006H1254.33ZM1260.13 306.046C1262.03 306.046 1262.54 305.246 1263.2 303.326L1266.1 295.006H1265.17L1262.8 301.854L1260.03 295.006H1259.07L1262.35 303.134L1262.32 303.23C1261.78 304.766 1261.38 305.182 1260.13 305.182V306.046ZM1268.43 301.758H1267.34V304.99L1268.43 304.046V301.758ZM1058.78 315.966V327.006H1062.43C1065.18 327.006 1066.16 325.438 1066.16 323.934C1066.16 322.478 1065.29 321.55 1063.9 321.246C1064.97 320.99 1065.8 319.998 1065.8 318.766C1065.8 316.942 1064.57 315.966 1062.04 315.966H1058.78ZM1059.71 321.71H1062.12C1064.22 321.71 1065.23 322.446 1065.23 323.934C1065.23 325.23 1064.33 326.142 1062.43 326.142H1059.71V321.71ZM1059.71 316.83H1062.04C1064.3 316.83 1064.88 317.646 1064.88 318.766C1064.88 319.902 1064.12 320.846 1062.33 320.846H1059.71V316.83ZM1068.71 327.006H1069.59V319.006H1068.71V327.006ZM1068.62 317.038H1069.69V315.966H1068.62V317.038ZM1072.14 323.566C1072.14 325.758 1073.18 327.102 1075.26 327.102C1076.46 327.102 1077.23 326.766 1077.68 326.03V326.686C1077.68 328.27 1076.96 329.326 1075.34 329.326C1074.42 329.326 1073.76 329.038 1073.33 328.35L1072.64 328.846C1073.17 329.726 1074.02 330.142 1075.3 330.142C1077.36 330.142 1078.56 328.91 1078.56 326.686V319.006H1077.68V320.046C1077.23 319.294 1076.46 318.91 1075.26 318.91C1073.28 318.91 1072.14 320.142 1072.14 322.414V323.566ZM1075.33 326.286C1073.78 326.286 1073.02 325.246 1073.02 323.566V322.414C1073.02 320.67 1073.81 319.726 1075.33 319.726C1076.99 319.726 1077.68 320.75 1077.68 322.318V323.582C1077.68 325.15 1077.12 326.286 1075.33 326.286ZM1088.84 319.31C1088.49 316.894 1086.92 315.87 1084.95 315.87C1082.55 315.87 1081.03 317.262 1081.03 320.83V322.142C1081.03 325.71 1082.55 327.102 1084.95 327.102C1086.84 327.102 1088.47 326.11 1088.83 323.63H1087.93C1087.58 325.39 1086.55 326.238 1084.95 326.238C1083.08 326.238 1081.96 325.166 1081.96 322.142V320.83C1081.96 317.822 1083.07 316.734 1084.95 316.734C1086.46 316.734 1087.56 317.438 1087.93 319.31H1088.84ZM1097.13 323.582V322.414C1097.13 320.142 1095.93 318.91 1093.88 318.91C1091.84 318.91 1090.64 320.142 1090.64 322.414V323.582C1090.64 325.822 1091.82 327.102 1093.88 327.102C1096.03 327.102 1097.13 325.758 1097.13 323.582ZM1096.25 323.582C1096.25 325.262 1095.44 326.286 1093.88 326.286C1092.27 326.286 1091.52 325.262 1091.52 323.582V322.414C1091.52 320.67 1092.35 319.726 1093.88 319.726C1095.4 319.726 1096.25 320.67 1096.25 322.414V323.582ZM1099.45 327.006H1100.33V322.206C1100.33 320.734 1101.04 319.742 1102.35 319.742C1103.5 319.742 1104.27 320.542 1104.27 322.286V327.006H1105.15V322.094C1105.15 320.686 1105.89 319.742 1107.17 319.742C1108.32 319.742 1109.09 320.542 1109.09 322.286V327.006H1109.97V322.27C1109.97 320.094 1108.94 318.91 1107.26 318.91C1106.16 318.91 1105.28 319.47 1104.83 320.478C1104.41 319.454 1103.58 318.91 1102.45 318.91C1101.39 318.91 1100.67 319.358 1100.33 320.094V319.006H1099.45V327.006ZM1112.68 327.006H1113.56V322.206C1113.56 320.734 1114.27 319.742 1115.58 319.742C1116.73 319.742 1117.5 320.542 1117.5 322.286V327.006H1118.38V322.094C1118.38 320.686 1119.12 319.742 1120.4 319.742C1121.55 319.742 1122.32 320.542 1122.32 322.286V327.006H1123.2V322.27C1123.2 320.094 1122.17 318.91 1120.49 318.91C1119.39 318.91 1118.51 319.47 1118.06 320.478C1117.64 319.454 1116.81 318.91 1115.68 318.91C1114.62 318.91 1113.9 319.358 1113.56 320.094V319.006H1112.68V327.006ZM1131.69 323.23V322.414C1131.69 320.142 1130.6 318.91 1128.6 318.91C1126.6 318.91 1125.51 320.142 1125.51 322.414V323.566C1125.51 325.79 1126.75 327.102 1128.87 327.102C1130.17 327.102 1131.05 326.686 1131.61 325.806L1130.91 325.31C1130.46 325.998 1129.8 326.286 1128.83 326.286C1127.13 326.286 1126.39 325.15 1126.39 323.566V323.23H1131.69ZM1126.39 322.414C1126.39 320.686 1127.15 319.726 1128.6 319.726C1130.06 319.726 1130.81 320.67 1130.81 322.414V322.43H1126.39V322.414ZM1136.96 319.742C1137.66 319.742 1138.14 320.014 1138.56 320.558L1139.3 320.014C1138.77 319.31 1138.08 318.91 1137.04 318.91C1136.03 318.91 1135.36 319.358 1135.02 320.094V319.006H1134.14V327.006H1135.02V322.19C1135.02 320.734 1135.71 319.742 1136.96 319.742ZM1145.74 325.31C1145.29 326.014 1144.54 326.286 1143.72 326.286C1141.96 326.286 1141.23 325.15 1141.23 323.566V322.414C1141.23 320.686 1142.14 319.726 1143.72 319.726C1144.52 319.726 1145.28 320.014 1145.72 320.622L1146.43 320.142C1145.84 319.326 1144.89 318.91 1143.72 318.91C1141.61 318.91 1140.35 320.142 1140.35 322.414V323.566C1140.35 325.822 1141.58 327.102 1143.72 327.102C1144.97 327.102 1145.92 326.654 1146.44 325.806L1145.74 325.31ZM1154.1 323.23V322.414C1154.1 320.142 1153.01 318.91 1151.01 318.91C1149.01 318.91 1147.92 320.142 1147.92 322.414V323.566C1147.92 325.79 1149.15 327.102 1151.28 327.102C1152.58 327.102 1153.46 326.686 1154.02 325.806L1153.31 325.31C1152.87 325.998 1152.21 326.286 1151.23 326.286C1149.54 326.286 1148.8 325.15 1148.8 323.566V323.23H1154.1ZM1148.8 322.414C1148.8 320.686 1149.55 319.726 1151.01 319.726C1152.47 319.726 1153.22 320.67 1153.22 322.414V322.43H1148.8V322.414ZM1157.45 325.758H1156.36V328.99L1157.45 328.046V325.758ZM1165.79 315.966H1164.89V327.006H1165.82V318.014L1169.04 324.542H1169.87L1173.12 317.998V327.006H1174.05V315.966H1173.13L1169.47 323.31L1165.79 315.966ZM1176.69 324.718C1176.69 326.254 1177.69 327.102 1179.47 327.102C1180.49 327.102 1181.29 326.862 1181.74 326.014V327.006H1182.62V321.47C1182.62 319.518 1181.69 318.91 1179.74 318.91C1178.32 318.91 1177.52 319.246 1176.96 320.19L1177.63 320.654C1178.14 319.806 1178.77 319.742 1179.73 319.742C1181.2 319.742 1181.74 320.11 1181.74 321.47V322.462H1179.41C1177.76 322.462 1176.69 323.182 1176.69 324.718ZM1181.74 324.03C1181.74 325.822 1180.77 326.27 1179.47 326.27C1178.35 326.27 1177.57 325.854 1177.57 324.734C1177.57 323.886 1178.03 323.246 1179.41 323.246H1181.74V324.03ZM1184.95 323.566C1184.95 325.758 1185.99 327.102 1188.07 327.102C1189.27 327.102 1190.04 326.766 1190.48 326.03V326.686C1190.48 328.27 1189.76 329.326 1188.15 329.326C1187.22 329.326 1186.56 329.038 1186.13 328.35L1185.44 328.846C1185.97 329.726 1186.82 330.142 1188.1 330.142C1190.16 330.142 1191.36 328.91 1191.36 326.686V319.006H1190.48V320.046C1190.04 319.294 1189.27 318.91 1188.07 318.91C1186.08 318.91 1184.95 320.142 1184.95 322.414V323.566ZM1188.13 326.286C1186.58 326.286 1185.83 325.246 1185.83 323.566V322.414C1185.83 320.67 1186.61 319.726 1188.13 319.726C1189.8 319.726 1190.48 320.75 1190.48 322.318V323.582C1190.48 325.15 1189.92 326.286 1188.13 326.286ZM1199.85 323.23V322.414C1199.85 320.142 1198.77 318.91 1196.77 318.91C1194.77 318.91 1193.68 320.142 1193.68 322.414V323.566C1193.68 325.79 1194.91 327.102 1197.04 327.102C1198.33 327.102 1199.21 326.686 1199.77 325.806L1199.07 325.31C1198.62 325.998 1197.97 326.286 1196.99 326.286C1195.29 326.286 1194.56 325.15 1194.56 323.566V323.23H1199.85ZM1194.56 322.414C1194.56 320.686 1195.31 319.726 1196.77 319.726C1198.22 319.726 1198.97 320.67 1198.97 322.414V322.43H1194.56V322.414ZM1202.31 327.006H1203.19V322.206C1203.19 320.734 1203.94 319.742 1205.44 319.742C1206.69 319.742 1207.6 320.462 1207.6 322.286V327.006H1208.48V322.27C1208.48 320.014 1207.32 318.91 1205.54 318.91C1204.34 318.91 1203.6 319.326 1203.19 320.094V319.006H1202.31V327.006ZM1210.51 319.822H1211.53V324.542C1211.53 326.206 1212.04 327.006 1213.82 327.006H1214.38V326.158H1213.85C1212.55 326.158 1212.41 325.582 1212.41 324.302V319.822H1214.38V319.006H1212.41V317.246H1211.53V319.006H1210.51V319.822ZM1222.63 323.582V322.414C1222.63 320.142 1221.43 318.91 1219.38 318.91C1217.33 318.91 1216.13 320.142 1216.13 322.414V323.582C1216.13 325.822 1217.32 327.102 1219.38 327.102C1221.52 327.102 1222.63 325.758 1222.63 323.582ZM1221.75 323.582C1221.75 325.262 1220.93 326.286 1219.38 326.286C1217.76 326.286 1217.01 325.262 1217.01 323.582V322.414C1217.01 320.67 1217.84 319.726 1219.38 319.726C1220.9 319.726 1221.75 320.67 1221.75 322.414V323.582ZM1225.76 325.758H1224.67V328.99L1225.76 328.046V325.758ZM1234.1 325.71H1232.8V327.006H1234.1V325.71ZM1237.95 325.71H1236.65V327.006H1237.95V325.71ZM1241.81 325.71H1240.51V327.006H1241.81V325.71ZM1244.35 328.862C1246.54 327.214 1246.94 326.19 1246.94 324.414V318.462C1246.94 316.686 1246.54 315.662 1244.35 314.014L1243.8 314.718C1245.72 316.19 1246.06 317.038 1246.06 318.766V324.11C1246.06 325.838 1245.72 326.702 1243.8 328.158L1244.35 328.862ZM1044 345.55C1044 346.286 1044.61 346.894 1045.34 346.894C1046.08 346.894 1046.69 346.286 1046.69 345.55C1046.69 344.814 1046.08 344.206 1045.34 344.206C1044.61 344.206 1044 344.814 1044 345.55ZM1066.03 343.31C1065.68 340.894 1064.11 339.87 1062.14 339.87C1059.74 339.87 1058.22 341.262 1058.22 344.83V346.142C1058.22 349.71 1059.74 351.102 1062.14 351.102C1064.03 351.102 1065.66 350.11 1066.01 347.63H1065.12C1064.76 349.39 1063.74 350.238 1062.14 350.238C1060.27 350.238 1059.15 349.166 1059.15 346.142V344.83C1059.15 341.822 1060.25 340.734 1062.14 340.734C1063.64 340.734 1064.75 341.438 1065.12 343.31H1066.03ZM1076.21 351.006L1073.65 346.126C1075.1 345.726 1075.92 344.718 1075.92 343.15C1075.92 341.054 1074.48 339.966 1071.98 339.966H1068.54V351.006H1069.47V346.318H1071.98C1072.24 346.318 1072.48 346.318 1072.72 346.286L1075.17 351.006H1076.21ZM1069.47 345.454V340.83H1071.98C1073.92 340.83 1074.99 341.502 1074.99 343.15C1074.99 344.798 1073.92 345.454 1071.98 345.454H1069.47ZM1079.57 339.966H1078.68V351.006H1079.61V342.014L1082.82 348.542H1083.65L1086.9 341.998V351.006H1087.83V339.966H1086.92L1083.25 347.31L1079.57 339.966ZM1101.76 346.414C1101.76 344.142 1100.63 342.91 1098.64 342.91C1097.43 342.91 1096.68 343.294 1096.23 344.014V343.006H1095.35V354.046H1096.23V350.062C1096.68 350.766 1097.43 351.102 1098.64 351.102C1100.72 351.102 1101.76 349.758 1101.76 347.566V346.414ZM1098.58 350.286C1096.82 350.286 1096.24 349.214 1096.23 347.71V346.318C1096.23 344.75 1096.88 343.726 1098.58 343.726C1100.1 343.726 1100.88 344.67 1100.88 346.414V347.566C1100.88 349.246 1100.12 350.286 1098.58 350.286ZM1104.08 348.574C1104.08 350.238 1104.64 351.038 1106.48 351.038V350.206C1105.09 350.206 1104.96 349.47 1104.96 348.35V339.966H1104.08V348.574ZM1108.44 348.718C1108.44 350.254 1109.45 351.102 1111.22 351.102C1112.25 351.102 1113.05 350.862 1113.5 350.014V351.006H1114.38V345.47C1114.38 343.518 1113.45 342.91 1111.5 342.91C1110.07 342.91 1109.27 343.246 1108.71 344.19L1109.38 344.654C1109.9 343.806 1110.52 343.742 1111.48 343.742C1112.95 343.742 1113.5 344.11 1113.5 345.47V346.462H1111.16C1109.51 346.462 1108.44 347.182 1108.44 348.718ZM1113.5 348.03C1113.5 349.822 1112.52 350.27 1111.22 350.27C1110.1 350.27 1109.32 349.854 1109.32 348.734C1109.32 347.886 1109.78 347.246 1111.16 347.246H1113.5V348.03ZM1116.4 343.822H1117.42V348.542C1117.42 350.206 1117.93 351.006 1119.71 351.006H1120.27V350.158H1119.74C1118.45 350.158 1118.3 349.582 1118.3 348.302V343.822H1120.27V343.006H1118.3V341.246H1117.42V343.006H1116.4V343.822ZM1121.8 343.006V343.822H1122.82V351.006H1123.7V343.822H1125.46V343.006H1123.7V342.654C1123.7 341.422 1123.83 340.814 1125.11 340.814H1125.46V339.966H1125.09C1123.33 339.966 1122.82 340.75 1122.82 342.43V343.006H1121.8ZM1133.49 347.582V346.414C1133.49 344.142 1132.29 342.91 1130.24 342.91C1128.19 342.91 1126.99 344.142 1126.99 346.414V347.582C1126.99 349.822 1128.17 351.102 1130.24 351.102C1132.38 351.102 1133.49 349.758 1133.49 347.582ZM1132.61 347.582C1132.61 349.262 1131.79 350.286 1130.24 350.286C1128.62 350.286 1127.87 349.262 1127.87 347.582V346.414C1127.87 344.67 1128.7 343.726 1130.24 343.726C1131.76 343.726 1132.61 344.67 1132.61 346.414V347.582ZM1138.62 343.742C1139.33 343.742 1139.81 344.014 1140.22 344.558L1140.96 344.014C1140.43 343.31 1139.74 342.91 1138.7 342.91C1137.69 342.91 1137.02 343.358 1136.69 344.094V343.006H1135.81V351.006H1136.69V346.19C1136.69 344.734 1137.37 343.742 1138.62 343.742ZM1142.47 351.006H1143.35V346.206C1143.35 344.734 1144.06 343.742 1145.37 343.742C1146.52 343.742 1147.29 344.542 1147.29 346.286V351.006H1148.17V346.094C1148.17 344.686 1148.91 343.742 1150.19 343.742C1151.34 343.742 1152.11 344.542 1152.11 346.286V351.006H1152.99V346.27C1152.99 344.094 1151.96 342.91 1150.28 342.91C1149.18 342.91 1148.3 343.47 1147.85 344.478C1147.43 343.454 1146.6 342.91 1145.47 342.91C1144.41 342.91 1143.69 343.358 1143.35 344.094V343.006H1142.47V351.006ZM1044 369.55C1044 370.286 1044.61 370.894 1045.34 370.894C1046.08 370.894 1046.69 370.286 1046.69 369.55C1046.69 368.814 1046.08 368.206 1045.34 368.206C1044.61 368.206 1044 368.814 1044 369.55ZM1066.03 367.31C1065.68 364.894 1064.11 363.87 1062.14 363.87C1059.74 363.87 1058.22 365.262 1058.22 368.83V370.142C1058.22 373.71 1059.74 375.102 1062.14 375.102C1064.03 375.102 1065.66 374.11 1066.01 371.63H1065.12C1064.76 373.39 1063.74 374.238 1062.14 374.238C1060.27 374.238 1059.15 373.166 1059.15 370.142V368.83C1059.15 365.822 1060.25 364.734 1062.14 364.734C1063.64 364.734 1064.75 365.438 1065.12 367.31H1066.03ZM1074.4 367.006H1073.52V371.806C1073.52 373.262 1072.77 374.27 1071.25 374.27C1070.01 374.27 1069.1 373.55 1069.1 371.742V367.006H1068.22V371.742C1068.22 374.014 1069.37 375.102 1071.15 375.102C1072.35 375.102 1073.09 374.686 1073.52 373.934V375.006H1074.4V367.006ZM1082.37 368.238C1081.76 367.246 1080.8 366.91 1079.54 366.91C1077.73 366.91 1076.75 367.774 1076.75 369.07C1076.75 370.686 1077.99 371.15 1079.35 371.326C1080.93 371.534 1081.73 371.886 1081.73 372.91C1081.73 373.87 1080.95 374.27 1079.7 374.27C1078.45 374.27 1077.84 373.966 1077.36 373.294L1076.67 373.774C1077.27 374.606 1078.1 375.102 1079.68 375.102C1081.81 375.102 1082.61 374.142 1082.61 372.894C1082.61 371.198 1081.31 370.75 1079.76 370.542C1078.64 370.398 1077.63 370.174 1077.63 369.054C1077.63 368.142 1078.45 367.742 1079.52 367.742C1080.69 367.742 1081.2 368.014 1081.7 368.718L1082.37 368.238ZM1084.27 367.822H1085.3V372.542C1085.3 374.206 1085.81 375.006 1087.59 375.006H1088.15V374.158H1087.62C1086.32 374.158 1086.18 373.582 1086.18 372.302V367.822H1088.15V367.006H1086.18V365.246H1085.3V367.006H1084.27V367.822ZM1096.4 371.582V370.414C1096.4 368.142 1095.2 366.91 1093.15 366.91C1091.1 366.91 1089.9 368.142 1089.9 370.414V371.582C1089.9 373.822 1091.09 375.102 1093.15 375.102C1095.29 375.102 1096.4 373.758 1096.4 371.582ZM1095.52 371.582C1095.52 373.262 1094.7 374.286 1093.15 374.286C1091.53 374.286 1090.78 373.262 1090.78 371.582V370.414C1090.78 368.67 1091.61 367.726 1093.15 367.726C1094.67 367.726 1095.52 368.67 1095.52 370.414V371.582ZM1098.72 375.006H1099.6V370.206C1099.6 368.734 1100.3 367.742 1101.62 367.742C1102.77 367.742 1103.54 368.542 1103.54 370.286V375.006H1104.42V370.094C1104.42 368.686 1105.15 367.742 1106.43 367.742C1107.58 367.742 1108.35 368.542 1108.35 370.286V375.006H1109.23V370.27C1109.23 368.094 1108.21 366.91 1106.53 366.91C1105.42 366.91 1104.54 367.47 1104.1 368.478C1103.68 367.454 1102.85 366.91 1101.71 366.91C1100.66 366.91 1099.94 367.358 1099.6 368.094V367.006H1098.72V375.006ZM1116.43 375.006H1117.31V370.206C1117.31 368.734 1118.06 367.742 1119.57 367.742C1120.81 367.742 1121.73 368.462 1121.73 370.286V375.006H1122.61V370.27C1122.61 368.014 1121.44 366.91 1119.66 366.91C1118.48 366.91 1117.74 367.326 1117.31 368.094V363.966H1116.43V375.006ZM1124.93 372.718C1124.93 374.254 1125.94 375.102 1127.72 375.102C1128.74 375.102 1129.54 374.862 1129.99 374.014V375.006H1130.87V369.47C1130.87 367.518 1129.94 366.91 1127.99 366.91C1126.56 366.91 1125.76 367.246 1125.2 368.19L1125.88 368.654C1126.39 367.806 1127.01 367.742 1127.97 367.742C1129.44 367.742 1129.99 368.11 1129.99 369.47V370.462H1127.65C1126 370.462 1124.93 371.182 1124.93 372.718ZM1129.99 372.03C1129.99 373.822 1129.01 374.27 1127.72 374.27C1126.6 374.27 1125.81 373.854 1125.81 372.734C1125.81 371.886 1126.28 371.246 1127.65 371.246H1129.99V372.03ZM1133.59 375.006H1134.47V370.206C1134.47 368.734 1135.22 367.742 1136.73 367.742C1137.98 367.742 1138.89 368.462 1138.89 370.286V375.006H1139.77V370.27C1139.77 368.014 1138.6 366.91 1136.82 366.91C1135.62 366.91 1134.89 367.326 1134.47 368.094V367.006H1133.59V375.006ZM1147.63 368.046C1147.18 367.294 1146.41 366.91 1145.21 366.91C1143.23 366.91 1142.09 368.142 1142.09 370.414V371.566C1142.09 373.758 1143.13 375.102 1145.21 375.102C1146.41 375.102 1147.18 374.766 1147.63 374.03V375.006H1148.51V363.966H1147.63V368.046ZM1145.28 374.286C1143.73 374.286 1142.97 373.246 1142.97 371.566V370.414C1142.97 368.67 1143.76 367.726 1145.28 367.726C1146.99 367.726 1147.63 368.798 1147.63 370.43V371.582C1147.63 373.15 1147.07 374.286 1145.28 374.286ZM1157 371.23V370.414C1157 368.142 1155.91 366.91 1153.91 366.91C1151.91 366.91 1150.82 368.142 1150.82 370.414V371.566C1150.82 373.79 1152.06 375.102 1154.18 375.102C1155.48 375.102 1156.36 374.686 1156.92 373.806L1156.22 373.31C1155.77 373.998 1155.11 374.286 1154.14 374.286C1152.44 374.286 1151.7 373.15 1151.7 371.566V371.23H1157ZM1151.7 370.414C1151.7 368.686 1152.46 367.726 1153.91 367.726C1155.37 367.726 1156.12 368.67 1156.12 370.414V370.43H1151.7V370.414ZM1159.45 372.574C1159.45 374.238 1160.01 375.038 1161.85 375.038V374.206C1160.46 374.206 1160.33 373.47 1160.33 372.35V363.966H1159.45V372.574ZM1164.46 375.006H1165.34V367.006H1164.46V375.006ZM1164.36 365.038H1165.43V363.966H1164.36V365.038ZM1168.29 375.006H1169.17V370.206C1169.17 368.734 1169.92 367.742 1171.43 367.742C1172.67 367.742 1173.59 368.462 1173.59 370.286V375.006H1174.47V370.27C1174.47 368.014 1173.3 366.91 1171.52 366.91C1170.32 366.91 1169.59 367.326 1169.17 368.094V367.006H1168.29V375.006ZM1176.79 371.566C1176.79 373.758 1177.83 375.102 1179.91 375.102C1181.11 375.102 1181.88 374.766 1182.33 374.03V374.686C1182.33 376.27 1181.61 377.326 1179.99 377.326C1179.06 377.326 1178.41 377.038 1177.98 376.35L1177.29 376.846C1177.82 377.726 1178.66 378.142 1179.94 378.142C1182.01 378.142 1183.21 376.91 1183.21 374.686V367.006H1182.33V368.046C1181.88 367.294 1181.11 366.91 1179.91 366.91C1177.93 366.91 1176.79 368.142 1176.79 370.414V371.566ZM1179.98 374.286C1178.42 374.286 1177.67 373.246 1177.67 371.566V370.414C1177.67 368.67 1178.46 367.726 1179.98 367.726C1181.64 367.726 1182.33 368.75 1182.33 370.318V371.582C1182.33 373.15 1181.77 374.286 1179.98 374.286Z" fill="white"/>
<path d="M787.746 380.16L788.498 377.872H792.482L793.234 380.16H795.202L791.362 369.12H789.602L785.762 380.16H787.746ZM790.482 371.808L791.954 376.272H789.01L790.482 371.808ZM800.702 376.128C803.262 376.128 804.766 374.848 804.766 372.608C804.766 370.336 803.246 369.12 800.702 369.12H796.942V380.16H798.798V376.128H800.702ZM798.798 374.528V370.736H800.51C802.206 370.736 802.91 371.408 802.91 372.608C802.91 373.872 802.206 374.528 800.51 374.528H798.798ZM808.86 369.12H807.004V380.16H808.86V369.12Z" fill="white"/>
<path d="M460.255 130.74L404.545 93.2804L420.645 14.6504L475.625 51.8204L460.255 130.74Z" fill="#1A4973"/>
<path d="M460.254 130.74L525.764 116.09L540.664 36.9404L475.624 51.8104L460.254 130.74Z" fill="#1D72A6"/>
<path d="M485.376 0L540.666 36.94L475.626 51.82L420.656 14.65L485.376 0Z" fill="url(#paint1_linear_1_225)"/>
<path d="M416.754 33.6699C398.034 37.1699 385.694 44.0499 384.554 53.2599C383.484 61.9199 392.504 70.9899 407.954 78.6699C421.354 85.3299 439.584 90.9299 460.264 94.2899" stroke="white" stroke-width="2" stroke-miterlimit="10"/>
<path d="M538.324 49.3301C554.604 57.1401 564.194 66.5001 563.084 75.4101C561.914 84.8101 549.074 91.7901 529.684 95.2201C516.314 97.5801 499.844 98.2601 481.934 96.8901" stroke="white" stroke-width="2" stroke-miterlimit="10"/>
<path d="M455.887 98.2276L455.312 97.5606L460.242 94.2514L456.367 89.7587L457.098 89.2673L461.549 94.427L455.887 98.2276Z" fill="white" stroke="white"/>
<path d="M436.464 154.18L442.344 170.74H444.888L450.768 154.18H447.72L443.592 166.3L439.512 154.18H436.464ZM453.37 170.74H455.938V158.74H453.37V170.74ZM453.25 156.796H456.058V154.18H453.25V156.796ZM466.881 167.572C466.401 168.316 465.825 168.748 464.409 168.748C462.513 168.748 461.793 167.284 461.793 165.412V165.364H468.969V164.044C468.969 160.492 467.409 158.524 464.121 158.524C460.977 158.524 459.249 160.372 459.249 163.9V165.532C459.249 168.724 461.073 170.956 464.505 170.956C466.617 170.956 467.961 170.38 468.801 168.916L466.881 167.572ZM464.121 160.756C465.585 160.756 466.305 161.644 466.401 163.396H461.817C461.937 161.764 462.633 160.756 464.121 160.756ZM479.229 162.58L482.157 170.74H484.269L487.677 158.74H484.989L482.973 166.348L480.117 158.74H478.149L475.461 166.3L473.445 158.74H470.781L474.165 170.74H476.301L479.229 162.58ZM496.939 167.572C496.459 168.316 495.883 168.748 494.467 168.748C492.571 168.748 491.851 167.284 491.851 165.412V165.364H499.027V164.044C499.027 160.492 497.467 158.524 494.179 158.524C491.035 158.524 489.307 160.372 489.307 163.9V165.532C489.307 168.724 491.131 170.956 494.563 170.956C496.675 170.956 498.019 170.38 498.859 168.916L496.939 167.572ZM494.179 160.756C495.643 160.756 496.363 161.644 496.459 163.396H491.875C491.995 161.764 492.691 160.756 494.179 160.756ZM510.77 160.3C510.026 159.124 508.97 158.524 507.434 158.524C506.018 158.524 505.202 159.124 504.746 159.82V158.74H502.226V170.74H504.794V163.492C504.794 161.764 505.706 160.804 507.002 160.804C507.818 160.804 508.346 161.188 508.73 161.74L510.77 160.3Z" fill="white"/>
<path d="M468.036 393.732L406.536 366.816L408.344 286.575L469.075 313.336L468.036 393.732Z" fill="#1A4973"/>
<path d="M468.036 393.733L529.88 367.627L530.415 287.088L469.073 313.327L468.036 393.733Z" fill="#1D72A6"/>
<path d="M469.42 260.608L530.415 287.088L469.075 313.336L408.354 286.573L469.42 260.608Z" fill="url(#paint2_linear_1_225)"/>
<circle cx="530.668" cy="329.756" r="27.0876" fill="white"/>
<path d="M534.158 314.648L535.295 313.364C537.283 311.115 540.719 310.904 542.967 312.893L544.381 314.143C546.629 316.132 546.84 319.567 544.851 321.816L543.715 323.1L534.158 314.648Z" fill="#1D72A6"/>
<path d="M543.906 322.883L534.349 314.43L518.079 332.827H518.074L516.804 339.083L515.533 345.333L521.585 343.312L527.637 341.286L527.632 341.281L543.906 322.883Z" fill="#1A4973"/>
<path d="M543.94 322.854L534.375 314.395L532.66 316.334L542.224 324.793L543.94 322.854Z" fill="#082036"/>
<path d="M420.188 432.251C419.636 428.651 417.452 426.899 414.164 426.899C410.468 426.899 407.972 429.131 407.972 434.339V436.451C407.972 441.659 410.468 443.891 414.164 443.891C417.452 443.891 419.612 442.259 420.164 438.539H417.5C417.068 440.555 416.06 441.467 414.164 441.467C411.956 441.467 410.756 439.979 410.756 436.451V434.339C410.756 430.763 411.956 429.323 414.164 429.323C415.988 429.323 417.068 430.235 417.5 432.251H420.188ZM432.69 436.907C432.69 433.379 430.842 431.459 427.602 431.459C424.362 431.459 422.49 433.379 422.49 436.907V438.419C422.49 441.731 424.242 443.891 427.602 443.891C431.13 443.891 432.69 441.611 432.69 438.419V436.907ZM427.602 441.683C425.658 441.683 425.034 440.219 425.034 438.347V436.955C425.034 434.891 425.874 433.691 427.602 433.691C429.306 433.691 430.146 434.867 430.146 436.955V438.347C430.146 440.219 429.426 441.683 427.602 441.683ZM435.644 443.675H438.212V436.427C438.212 434.819 439.1 433.739 440.684 433.739C442.004 433.739 442.964 434.339 442.964 436.451V443.675H445.508V436.163C445.508 432.707 443.612 431.459 441.14 431.459C439.556 431.459 438.692 432.035 438.164 432.755V431.675H435.644V443.675ZM448.037 431.675V433.883H449.573V443.675H452.117V433.883H455.429V443.675H457.973V431.675H452.117V431.411C452.117 430.019 452.333 429.419 453.677 429.419H454.229V427.115H453.485C450.605 427.115 449.573 428.099 449.573 430.931V431.675H448.037ZM468.423 432.515C467.775 431.843 466.839 431.459 465.543 431.459C462.639 431.459 460.767 433.379 460.767 436.835V438.467C460.767 441.611 462.351 443.891 465.543 443.891C466.815 443.891 467.775 443.555 468.423 442.883V443.435C468.423 445.379 467.583 446.195 465.663 446.195C464.343 446.195 463.599 445.787 463.071 444.995L461.271 446.291C462.231 447.827 463.575 448.379 465.735 448.379C468.855 448.379 470.967 447.131 470.967 443.435V431.675H468.423V432.515ZM465.879 441.683C464.031 441.683 463.311 440.219 463.311 438.347V436.955C463.311 434.867 464.151 433.691 465.879 433.691C467.583 433.691 468.423 434.891 468.423 436.955V438.347C468.423 440.219 467.799 441.683 465.879 441.683ZM484.301 431.675H481.757V438.923C481.757 440.579 480.893 441.635 479.309 441.635C477.965 441.635 477.005 441.035 477.005 438.899V431.675H474.437V439.163C474.437 442.619 476.357 443.891 478.829 443.891C480.509 443.891 481.229 443.459 481.781 442.595V443.675H484.301V431.675ZM496.334 433.235C495.59 432.059 494.534 431.459 492.998 431.459C491.582 431.459 490.766 432.059 490.31 432.755V431.675H487.79V443.675H490.358V436.427C490.358 434.699 491.27 433.739 492.566 433.739C493.382 433.739 493.91 434.123 494.294 434.675L496.334 433.235ZM497.378 440.147C497.378 442.547 499.01 443.891 501.65 443.891C503.114 443.891 503.858 443.507 504.434 442.571V443.675H506.954V435.611C506.954 432.419 505.298 431.459 502.226 431.459C499.85 431.459 498.554 432.035 497.69 433.451L499.538 434.747C500.114 433.811 500.762 433.667 502.058 433.667C503.858 433.667 504.434 434.075 504.434 435.587V436.595H501.842C499.274 436.595 497.378 437.579 497.378 440.147ZM504.434 439.139C504.434 441.227 503.498 441.707 501.938 441.707C500.714 441.707 499.898 441.251 499.898 440.147C499.898 439.091 500.522 438.563 502.034 438.563H504.434V439.139ZM509.457 433.883H510.993V439.859C510.993 442.691 512.025 443.675 514.905 443.675H516.081V441.371H515.097C513.753 441.371 513.537 440.771 513.537 439.379V433.883H516.081V431.675H513.537V429.035H510.993V431.675H509.457V433.883ZM528.614 436.907C528.614 433.379 526.766 431.459 523.526 431.459C520.286 431.459 518.414 433.379 518.414 436.907V438.419C518.414 441.731 520.166 443.891 523.526 443.891C527.054 443.891 528.614 441.611 528.614 438.419V436.907ZM523.526 441.683C521.582 441.683 520.958 440.219 520.958 438.347V436.955C520.958 434.891 521.798 433.691 523.526 433.691C525.23 433.691 526.07 434.867 526.07 436.955V438.347C526.07 440.219 525.35 441.683 523.526 441.683ZM540.112 433.235C539.368 432.059 538.312 431.459 536.776 431.459C535.36 431.459 534.544 432.059 534.088 432.755V431.675H531.568V443.675H534.136V436.427C534.136 434.699 535.048 433.739 536.344 433.739C537.16 433.739 537.688 434.123 538.072 434.675L540.112 433.235Z" fill="white"/>
<path d="M963.044 398.647C997.448 398.647 1025.34 390.335 1025.34 380.081C1025.34 369.828 997.448 361.516 963.044 361.516C928.64 361.516 900.75 369.828 900.75 380.081C900.75 390.335 928.64 398.647 963.044 398.647Z" fill="#1D72A6"/>
<path d="M1025.34 348.191H900.75V380.082H1025.34V348.191Z" fill="#1D72A6"/>
<path d="M963.044 367.16C997.448 367.16 1025.34 358.848 1025.34 348.594C1025.34 338.341 997.448 330.028 963.044 330.028C928.64 330.028 900.75 338.341 900.75 348.594C900.75 358.848 928.64 367.16 963.044 367.16Z" fill="url(#paint3_linear_1_225)"/>
<path d="M963.044 361.516C997.448 361.516 1025.34 353.204 1025.34 342.951C1025.34 332.697 997.448 324.385 963.044 324.385C928.64 324.385 900.75 332.697 900.75 342.951C900.75 353.204 928.64 361.516 963.044 361.516Z" fill="#1D72A6"/>
<path d="M1025.34 311.061H900.75V342.951H1025.34V311.061Z" fill="#1D72A6"/>
<path d="M963.044 330.032C997.448 330.032 1025.34 321.72 1025.34 311.466C1025.34 301.213 997.448 292.9 963.044 292.9C928.64 292.9 900.75 301.213 900.75 311.466C900.75 321.72 928.64 330.032 963.044 330.032Z" fill="url(#paint4_linear_1_225)"/>
<path d="M963.044 324.387C997.448 324.387 1025.34 316.075 1025.34 305.822C1025.34 295.568 997.448 287.256 963.044 287.256C928.64 287.256 900.75 295.568 900.75 305.822C900.75 316.075 928.64 324.387 963.044 324.387Z" fill="#1D72A6"/>
<path d="M1025.34 273.931H900.75V305.821H1025.34V273.931Z" fill="#1D72A6"/>
<path d="M963.044 292.899C997.448 292.899 1025.34 284.587 1025.34 274.333C1025.34 264.08 997.448 255.768 963.044 255.768C928.64 255.768 900.75 264.08 900.75 274.333C900.75 284.587 928.64 292.899 963.044 292.899Z" fill="url(#paint5_linear_1_225)"/>
<path d="M945.963 438.647C949.683 438.647 952.179 436.655 952.179 431.351V429.383C952.179 424.079 949.683 422.087 945.963 422.087H940.371V438.647H945.963ZM945.963 436.247H943.155V424.511H945.963C948.339 424.511 949.395 425.975 949.395 429.383V431.351C949.395 434.759 948.339 436.247 945.963 436.247ZM954.824 435.119C954.824 437.519 956.456 438.863 959.096 438.863C960.56 438.863 961.304 438.479 961.88 437.543V438.647H964.4V430.583C964.4 427.391 962.744 426.431 959.672 426.431C957.296 426.431 956 427.007 955.136 428.423L956.984 429.719C957.56 428.783 958.208 428.639 959.504 428.639C961.304 428.639 961.88 429.047 961.88 430.559V431.567H959.288C956.72 431.567 954.824 432.551 954.824 435.119ZM961.88 434.111C961.88 436.199 960.944 436.679 959.384 436.679C958.16 436.679 957.344 436.223 957.344 435.119C957.344 434.063 957.968 433.535 959.48 433.535H961.88V434.111ZM966.903 428.855H968.439V434.831C968.439 437.663 969.471 438.647 972.351 438.647H973.527V436.343H972.543C971.199 436.343 970.983 435.743 970.983 434.351V428.855H973.527V426.647H970.983V424.007H968.439V426.647H966.903V428.855ZM975.764 435.119C975.764 437.519 977.396 438.863 980.036 438.863C981.5 438.863 982.244 438.479 982.82 437.543V438.647H985.34V430.583C985.34 427.391 983.684 426.431 980.612 426.431C978.236 426.431 976.94 427.007 976.076 428.423L977.924 429.719C978.5 428.783 979.148 428.639 980.444 428.639C982.244 428.639 982.82 429.047 982.82 430.559V431.567H980.228C977.66 431.567 975.764 432.551 975.764 435.119ZM982.82 434.111C982.82 436.199 981.884 436.679 980.324 436.679C979.1 436.679 978.284 436.223 978.284 435.119C978.284 434.063 978.908 433.535 980.42 433.535H982.82V434.111Z" fill="white"/>
<path d="M384.582 524.675H563.061C566.672 524.675 569.606 527.617 569.606 531.256V647.326C569.606 650.965 566.672 653.907 563.061 653.907H384.582C380.971 653.907 378.035 650.965 378.035 647.326V531.256C378.035 527.731 380.79 524.86 384.245 524.684L384.582 524.675Z" stroke="#1D72A6" stroke-width="2" stroke-miterlimit="10"/>
<path d="M384.582 524.675H563.061C566.654 524.675 569.606 527.634 569.606 531.256V536.574H378.035V531.256C378.035 527.747 380.806 524.86 384.247 524.684L384.582 524.675Z" stroke="#1D72A6" stroke-width="2" stroke-miterlimit="10"/>
<path d="M558.639 533.328C560.209 533.328 561.482 532.05 561.482 530.473C561.482 528.896 560.209 527.617 558.639 527.617C557.07 527.617 555.797 528.896 555.797 530.473C555.797 532.05 557.07 533.328 558.639 533.328Z" fill="#3C8FC2"/>
<path d="M548.733 533.328C550.303 533.328 551.576 532.05 551.576 530.473C551.576 528.896 550.303 527.617 548.733 527.617C547.163 527.617 545.891 528.896 545.891 530.473C545.891 532.05 547.163 533.328 548.733 533.328Z" fill="#3C8FC2"/>
<path d="M467.184 616.267L438.785 597.171L446.992 557.088L475.02 576.036L467.184 616.267Z" fill="#1A4973"/>
<path d="M467.184 616.268L500.579 608.8L508.174 568.452L475.019 576.032L467.184 616.268Z" fill="#3C8FC2"/>
<path d="M479.99 549.62L508.175 568.451L475.02 576.036L446.998 557.088L479.99 549.62Z" fill="url(#paint6_linear_1_225)"/>
<path d="M468.182 639.009C464.005 638.773 460.263 638.024 457.455 636.952C454.217 635.716 452.224 634.055 452.241 632.258C452.259 630.346 454.551 628.667 458.185 627.541C461.695 626.372 473.549 624.605 483.776 628.351" stroke="white" stroke-width="2" stroke-miterlimit="10"/>
<path d="M483.09 628.105C486.539 629.331 488.678 631.02 488.654 632.855C488.629 634.79 486.202 636.493 482.379 637.619C479.743 638.395 476.445 638.898 472.812 639.016" stroke="white" stroke-width="2" stroke-miterlimit="10"/>
<path d="M465.548 641.746L465.149 641.375L467.956 639.007L465.27 636.508L465.686 636.156L468.77 639.026L465.548 641.746Z" fill="white" stroke="white"/>
<circle cx="505.583" cy="589.529" r="13.4929" fill="white"/>
<path d="M507.322 582.004L507.888 581.364C508.879 580.244 510.59 580.139 511.71 581.129L512.414 581.752C513.534 582.743 513.639 584.454 512.649 585.574L512.083 586.214L507.322 582.004Z" fill="#3C8FC2"/>
<path d="M512.176 586.105L507.415 581.895L499.311 591.059H499.309L498.676 594.175L498.043 597.288L501.058 596.281L504.072 595.272L504.07 595.269L512.176 586.105Z" fill="#1A4973"/>
<path d="M512.194 586.091L507.43 581.877L506.575 582.843L511.34 587.057L512.194 586.091Z" fill="#082036"/>
<path d="M416.644 678.347V694.907H426.796V692.507H419.428V687.539H426.076V685.139H419.428V680.771H426.796V678.347H416.644ZM439.785 694.907L435.633 688.763L439.377 682.907H436.497L434.145 686.699L431.817 682.907H428.913L432.657 688.763L428.529 694.907H431.409L434.145 690.899L436.881 694.907H439.785ZM452.274 688.067C452.274 684.635 450.45 682.691 447.57 682.691C446.202 682.691 445.242 683.123 444.642 683.867V682.907H442.074V699.467H444.642V694.139C445.242 694.787 446.154 695.123 447.546 695.123C450.738 695.123 452.274 692.819 452.274 689.699V688.067ZM447.186 692.915C445.242 692.915 444.642 691.451 444.642 689.579V688.043C444.666 686.075 445.506 684.923 447.186 684.923C448.89 684.923 449.73 686.099 449.73 688.187V689.579C449.73 691.451 449.01 692.915 447.186 692.915ZM462.367 691.739C461.887 692.483 461.311 692.915 459.895 692.915C457.999 692.915 457.279 691.451 457.279 689.579V689.531H464.455V688.211C464.455 684.659 462.895 682.691 459.607 682.691C456.463 682.691 454.735 684.539 454.735 688.067V689.699C454.735 692.891 456.559 695.123 459.991 695.123C462.103 695.123 463.447 694.547 464.287 693.083L462.367 691.739ZM459.607 684.923C461.071 684.923 461.791 685.811 461.887 687.563H457.303C457.423 685.931 458.119 684.923 459.607 684.923ZM476.198 684.467C475.454 683.291 474.398 682.691 472.862 682.691C471.446 682.691 470.63 683.291 470.174 683.987V682.907H467.654V694.907H470.222V687.659C470.222 685.931 471.134 684.971 472.43 684.971C473.246 684.971 473.774 685.355 474.158 685.907L476.198 684.467ZM478.414 694.907H480.982V682.907H478.414V694.907ZM478.294 680.963H481.102V678.347H478.294V680.963ZM491.925 691.739C491.445 692.483 490.869 692.915 489.453 692.915C487.557 692.915 486.837 691.451 486.837 689.579V689.531H494.013V688.211C494.013 684.659 492.453 682.691 489.165 682.691C486.021 682.691 484.293 684.539 484.293 688.067V689.699C484.293 692.891 486.117 695.123 489.549 695.123C491.661 695.123 493.005 694.547 493.845 693.083L491.925 691.739ZM489.165 684.923C490.629 684.923 491.349 685.811 491.445 687.563H486.861C486.981 685.931 487.677 684.923 489.165 684.923ZM497.213 694.907H499.781V687.659C499.781 686.051 500.669 684.971 502.253 684.971C503.573 684.971 504.533 685.571 504.533 687.683V694.907H507.077V687.395C507.077 683.939 505.181 682.691 502.709 682.691C501.125 682.691 500.261 683.267 499.733 683.987V682.907H497.213V694.907ZM517.67 691.739C517.214 692.555 516.398 692.915 515.39 692.915C513.278 692.915 512.606 691.451 512.606 689.579V688.187C512.606 686.123 513.518 684.923 515.39 684.923C516.422 684.923 517.19 685.355 517.646 686.003L519.614 684.635C518.774 683.363 517.262 682.691 515.438 682.691C512.006 682.691 510.062 684.611 510.062 688.067V689.699C510.062 692.963 511.982 695.123 515.342 695.123C517.406 695.123 518.822 694.499 519.614 693.083L517.67 691.739ZM529.007 691.739C528.527 692.483 527.951 692.915 526.535 692.915C524.639 692.915 523.919 691.451 523.919 689.579V689.531H531.095V688.211C531.095 684.659 529.535 682.691 526.247 682.691C523.103 682.691 521.375 684.539 521.375 688.067V689.699C521.375 692.891 523.199 695.123 526.631 695.123C528.743 695.123 530.087 694.547 530.927 693.083L529.007 691.739ZM526.247 684.923C527.711 684.923 528.431 685.811 528.527 687.563H523.943C524.063 685.931 524.759 684.923 526.247 684.923Z" fill="white"/>
<path d="M30.6241 68.3652H117.796C119.689 68.3652 121.342 69.6515 121.824 71.497L133.346 115.667C135.429 123.655 129.453 131.472 121.259 131.472H25.6587C17.3006 131.472 11.2962 123.358 13.6787 115.281L26.6299 71.3683C27.1558 69.5859 28.7806 68.3652 30.6241 68.3652Z" fill="#1D72A6"/>
<path d="M117.557 103.686H29.4375C24.8359 103.686 21.1055 107.446 21.1055 112.086V116.344C21.1055 120.983 24.8359 124.744 29.4375 124.744H117.557C122.159 124.744 125.889 120.983 125.889 116.344V112.086C125.889 107.446 122.159 103.686 117.557 103.686Z" fill="url(#paint7_linear_1_225)"/>
<path d="M30.2373 0H117.409C119.302 0 120.955 1.28629 121.437 3.13173L132.959 47.3015C135.042 55.2896 129.066 63.1072 120.872 63.1072H25.272C16.9138 63.1072 10.9095 54.993 13.292 46.9156L26.2432 3.0031C26.7691 1.22067 28.3939 0 30.2373 0Z" fill="#1D72A6"/>
<path d="M30.2373 34.2969H117.409C119.302 34.2969 120.955 35.5832 121.437 37.4286L132.959 81.5984C135.042 89.5865 129.066 97.404 120.872 97.404H25.272C16.9138 97.404 10.9095 89.2899 13.292 81.2125L26.2432 37.3C26.7691 35.5175 28.3939 34.2969 30.2373 34.2969Z" fill="#1D72A6"/>
<path d="M117.557 35.7461H29.4375C24.8359 35.7461 21.1055 39.507 21.1055 44.1464V48.4043C21.1055 53.0436 24.8359 56.8046 29.4375 56.8046H117.557C122.159 56.8046 125.889 53.0436 125.889 48.4043V44.1464C125.889 39.507 122.159 35.7461 117.557 35.7461Z" fill="url(#paint8_linear_1_225)"/>
<path d="M117.557 69.6182H29.4375C24.8359 69.6182 21.1055 73.3791 21.1055 78.0185V82.2763C21.1055 86.9157 24.8359 90.6766 29.4375 90.6766H117.557C122.159 90.6766 125.889 86.9157 125.889 82.2763V78.0185C125.889 73.3791 122.159 69.6182 117.557 69.6182Z" fill="url(#paint9_linear_1_225)"/>
<path d="M32.3067 50.1996C34.4566 50.1996 36.1993 48.4425 36.1993 46.2751C36.1993 44.1076 34.4566 42.3506 32.3067 42.3506C30.1569 42.3506 28.4141 44.1076 28.4141 46.2751C28.4141 48.4425 30.1569 50.1996 32.3067 50.1996Z" fill="#1A4973"/>
<path d="M32.3067 84.0717C34.4566 84.0717 36.1993 82.3146 36.1993 80.1472C36.1993 77.9797 34.4566 76.2227 32.3067 76.2227C30.1569 76.2227 28.4141 77.9797 28.4141 80.1472C28.4141 82.3146 30.1569 84.0717 32.3067 84.0717Z" fill="#1A4973"/>
<path d="M32.3067 118.14C34.4566 118.14 36.1993 116.383 36.1993 114.216C36.1993 112.048 34.4566 110.291 32.3067 110.291C30.1569 110.291 28.4141 112.048 28.4141 114.216C28.4141 116.383 30.1569 118.14 32.3067 118.14Z" fill="#1A4973"/>
<path d="M40.7896 171.473L41.9176 168.041H47.8936L49.0216 171.473H51.9736L46.2136 154.913H43.5736L37.8136 171.473H40.7896ZM44.8936 158.945L47.1016 165.641H42.6856L44.8936 158.945ZM62.6711 161.249C61.7351 159.761 60.1751 159.257 58.2071 159.257C55.2791 159.257 53.7191 160.697 53.7191 162.833C53.7191 165.353 55.6391 166.313 57.9191 166.601C59.7911 166.841 60.4151 167.129 60.4151 168.113C60.4151 168.953 59.6471 169.433 58.3271 169.433C56.7431 169.433 56.0231 169.049 55.4711 168.305L53.5271 169.697C54.5111 171.017 55.9031 171.689 58.3511 171.689C61.4471 171.689 62.9591 170.249 62.9591 168.041C62.9591 165.497 61.2311 164.561 58.5671 164.249C57.1751 164.081 56.2871 163.769 56.2871 162.761C56.2871 161.897 57.0791 161.537 58.1591 161.537C59.5991 161.537 60.1991 161.873 60.7751 162.617L62.6711 161.249ZM74.5473 161.249C73.6113 159.761 72.0513 159.257 70.0833 159.257C67.1553 159.257 65.5953 160.697 65.5953 162.833C65.5953 165.353 67.5153 166.313 69.7953 166.601C71.6673 166.841 72.2913 167.129 72.2913 168.113C72.2913 168.953 71.5233 169.433 70.2033 169.433C68.6193 169.433 67.8993 169.049 67.3473 168.305L65.4033 169.697C66.3873 171.017 67.7793 171.689 70.2273 171.689C73.3233 171.689 74.8353 170.249 74.8353 168.041C74.8353 165.497 73.1073 164.561 70.4433 164.249C69.0513 164.081 68.1633 163.769 68.1633 162.761C68.1633 161.897 68.9553 161.537 70.0353 161.537C71.4753 161.537 72.0753 161.873 72.6513 162.617L74.5473 161.249ZM85.0076 168.305C84.5276 169.049 83.9516 169.481 82.5356 169.481C80.6396 169.481 79.9196 168.017 79.9196 166.145V166.097H87.0956V164.777C87.0956 161.225 85.5356 159.257 82.2476 159.257C79.1036 159.257 77.3756 161.105 77.3756 164.633V166.265C77.3756 169.457 79.1996 171.689 82.6316 171.689C84.7436 171.689 86.0876 171.113 86.9276 169.649L85.0076 168.305ZM82.2476 161.489C83.7116 161.489 84.4316 162.377 84.5276 164.129H79.9436C80.0636 162.497 80.7596 161.489 82.2476 161.489ZM89.3349 161.681H90.8709V167.657C90.8709 170.489 91.9029 171.473 94.7829 171.473H95.9589V169.169H94.9749C93.6309 169.169 93.4149 168.569 93.4149 167.177V161.681H95.9589V159.473H93.4149V156.833H90.8709V159.473H89.3349V161.681ZM107.34 161.249C106.404 159.761 104.844 159.257 102.876 159.257C99.9481 159.257 98.3881 160.697 98.3881 162.833C98.3881 165.353 100.308 166.313 102.588 166.601C104.46 166.841 105.084 167.129 105.084 168.113C105.084 168.953 104.316 169.433 102.996 169.433C101.412 169.433 100.692 169.049 100.14 168.305L98.1961 169.697C99.1801 171.017 100.572 171.689 103.02 171.689C106.116 171.689 107.628 170.249 107.628 168.041C107.628 165.497 105.9 164.561 103.236 164.249C101.844 164.081 100.956 163.769 100.956 162.761C100.956 161.897 101.748 161.537 102.828 161.537C104.268 161.537 104.868 161.873 105.444 162.617L107.34 161.249Z" fill="white"/>
<path d="M78.5612 187.473L72.7639 197.459L84.3109 197.486L78.5612 187.473ZM78.3516 275.447L79.3516 275.45L79.5398 196.475L78.5398 196.473L77.5398 196.47L77.3516 275.445L78.3516 275.447Z" fill="#3C8FC2"/>
<path d="M345.037 110.291L335.037 104.518V116.065L345.037 110.291ZM204 110.291V111.291L336.037 111.291V110.291V109.291L204 109.291V110.291Z" fill="#3C8FC2"/>
<path d="M868.75 391.16L858.75 385.387V396.934L868.75 391.16ZM727.713 391.16V392.16L859.75 392.16V391.16V390.16L727.713 390.16V391.16Z" fill="#3C8FC2"/>
<path d="M345.036 334.668L335.036 328.894L335.036 340.441L345.036 334.668ZM167.607 334.668L167.607 335.668L336.036 335.668L336.036 334.668L336.036 333.668L167.607 333.668L167.607 334.668Z" fill="#3C8FC2"/>
<path d="M868.75 334.668L858.75 328.894L858.75 340.441L868.75 334.668ZM602.607 334.668L602.607 335.668L859.75 335.668L859.75 334.668L859.75 333.668L602.607 333.668L602.607 334.668Z" fill="#3C8FC2"/>
<path d="M602.607 593.349L729.708 593.349" stroke="#3C8FC2" stroke-width="2"/>
<path d="M345.036 592.359L335.036 586.586L335.036 598.133L345.036 592.359ZM204.885 592.359L204.885 593.359L336.036 593.359L336.036 592.359L336.036 591.359L204.885 591.359L204.885 592.359Z" fill="#3C8FC2"/>
<path d="M129.33 302.668H205.884" stroke="#3C8FC2" stroke-width="2"/>
<path d="M153.316 366.668H205.878" stroke="#3C8FC2" stroke-width="2"/>
<path d="M204.885 302.668L204.885 109.306" stroke="#3C8FC2" stroke-width="2"/>
<path d="M728.713 593.349L728.713 390.161" stroke="#3C8FC2" stroke-width="2"/>
<path d="M204.885 593.349L204.885 366.668" stroke="#3C8FC2" stroke-width="2"/>
<path d="M73.0703 732.166L73.0703 428.227" stroke="#3C8FC2" stroke-width="2"/>
<path d="M868.75 732.166L858.75 726.393V737.94L868.75 732.166ZM72.0977 732.166V733.166H859.75V732.166V731.166H72.0977V732.166Z" fill="#3C8FC2"/>
<rect x="901.75" y="695.907" width="196" height="63.3164" rx="23" stroke="#3C8FC2" stroke-width="2"/>
<path d="M928.316 728.725C928.316 725.293 926.492 723.349 923.612 723.349C922.244 723.349 921.284 723.781 920.684 724.525V723.565H918.116V740.125H920.684V734.797C921.284 735.445 922.196 735.781 923.588 735.781C926.78 735.781 928.316 733.477 928.316 730.357V728.725ZM923.228 733.573C921.284 733.573 920.684 732.109 920.684 730.237V728.701C920.708 726.733 921.548 725.581 923.228 725.581C924.932 725.581 925.772 726.757 925.772 728.845V730.237C925.772 732.109 925.052 733.573 923.228 733.573ZM939.825 725.125C939.081 723.949 938.025 723.349 936.489 723.349C935.073 723.349 934.257 723.949 933.801 724.645V723.565H931.281V735.565H933.849V728.317C933.849 726.589 934.761 725.629 936.057 725.629C936.873 725.629 937.401 726.013 937.785 726.565L939.825 725.125ZM951.283 728.797C951.283 725.269 949.435 723.349 946.195 723.349C942.955 723.349 941.083 725.269 941.083 728.797V730.309C941.083 733.621 942.835 735.781 946.195 735.781C949.723 735.781 951.283 733.501 951.283 730.309V728.797ZM946.195 733.573C944.251 733.573 943.627 732.109 943.627 730.237V728.845C943.627 726.781 944.467 725.581 946.195 725.581C947.899 725.581 948.739 726.757 948.739 728.845V730.237C948.739 732.109 948.019 733.573 946.195 733.573ZM964.437 728.725C964.437 725.293 962.613 723.349 959.733 723.349C958.365 723.349 957.405 723.781 956.805 724.525V723.565H954.237V740.125H956.805V734.797C957.405 735.445 958.317 735.781 959.709 735.781C962.901 735.781 964.437 733.477 964.437 730.357V728.725ZM959.349 733.573C957.405 733.573 956.805 732.109 956.805 730.237V728.701C956.829 726.733 957.669 725.581 959.349 725.581C961.053 725.581 961.893 726.757 961.893 728.845V730.237C961.893 732.109 961.173 733.573 959.349 733.573ZM975.946 725.125C975.202 723.949 974.146 723.349 972.61 723.349C971.194 723.349 970.378 723.949 969.922 724.645V723.565H967.402V735.565H969.97V728.317C969.97 726.589 970.882 725.629 972.178 725.629C972.994 725.629 973.522 726.013 973.906 726.565L975.946 725.125ZM978.162 735.565H980.73V723.565H978.162V735.565ZM978.042 721.621H980.85V719.005H978.042V721.621ZM991.673 732.397C991.193 733.141 990.617 733.573 989.201 733.573C987.305 733.573 986.585 732.109 986.585 730.237V730.189H993.761V728.869C993.761 725.317 992.201 723.349 988.913 723.349C985.769 723.349 984.041 725.197 984.041 728.725V730.357C984.041 733.549 985.865 735.781 989.297 735.781C991.409 735.781 992.753 735.205 993.593 733.741L991.673 732.397ZM988.913 725.581C990.377 725.581 991.097 726.469 991.193 728.221H986.609C986.729 726.589 987.425 725.581 988.913 725.581ZM996.001 725.773H997.537V731.749C997.537 734.581 998.569 735.565 1001.45 735.565H1002.62V733.261H1001.64C1000.3 733.261 1000.08 732.661 1000.08 731.269V725.773H1002.62V723.565H1000.08V720.925H997.537V723.565H996.001V725.773ZM1004.86 732.037C1004.86 734.437 1006.49 735.781 1009.13 735.781C1010.6 735.781 1011.34 735.397 1011.92 734.461V735.565H1014.44V727.501C1014.44 724.309 1012.78 723.349 1009.71 723.349C1007.33 723.349 1006.04 723.925 1005.17 725.341L1007.02 726.637C1007.6 725.701 1008.25 725.557 1009.54 725.557C1011.34 725.557 1011.92 725.965 1011.92 727.477V728.485H1009.33C1006.76 728.485 1004.86 729.469 1004.86 732.037ZM1011.92 731.029C1011.92 733.117 1010.98 733.597 1009.42 733.597C1008.2 733.597 1007.38 733.141 1007.38 732.037C1007.38 730.981 1008.01 730.453 1009.52 730.453H1011.92V731.029ZM1026.44 725.125C1025.7 723.949 1024.64 723.349 1023.11 723.349C1021.69 723.349 1020.88 723.949 1020.42 724.645V723.565H1017.9V735.565H1020.47V728.317C1020.47 726.589 1021.38 725.629 1022.68 725.629C1023.49 725.629 1024.02 726.013 1024.4 726.565L1026.44 725.125ZM1027.05 723.565L1031.64 735.709C1031.04 737.509 1030.36 737.773 1028.68 737.773V740.125C1032.04 740.125 1032.93 739.117 1033.96 736.045L1038.19 723.565H1035.55L1032.81 732.013L1029.76 723.565H1027.05ZM1056.95 723.565H1054.4V730.813C1054.4 732.469 1053.54 733.525 1051.96 733.525C1050.61 733.525 1049.65 732.925 1049.65 730.789V723.565H1047.08V731.053C1047.08 734.509 1049 735.781 1051.48 735.781C1053.16 735.781 1053.88 735.349 1054.43 734.485V735.565H1056.95V723.565ZM1068.98 725.341C1068.04 723.853 1066.48 723.349 1064.52 723.349C1061.59 723.349 1060.03 724.789 1060.03 726.925C1060.03 729.445 1061.95 730.405 1064.23 730.693C1066.1 730.933 1066.72 731.221 1066.72 732.205C1066.72 733.045 1065.96 733.525 1064.64 733.525C1063.05 733.525 1062.33 733.141 1061.78 732.397L1059.84 733.789C1060.82 735.109 1062.21 735.781 1064.66 735.781C1067.76 735.781 1069.27 734.341 1069.27 732.133C1069.27 729.589 1067.54 728.653 1064.88 728.341C1063.48 728.173 1062.6 727.861 1062.6 726.853C1062.6 725.989 1063.39 725.629 1064.47 725.629C1065.91 725.629 1066.51 725.965 1067.08 726.709L1068.98 725.341ZM1079.44 732.397C1078.96 733.141 1078.39 733.573 1076.97 733.573C1075.07 733.573 1074.35 732.109 1074.35 730.237V730.189H1081.53V728.869C1081.53 725.317 1079.97 723.349 1076.68 723.349C1073.54 723.349 1071.81 725.197 1071.81 728.725V730.357C1071.81 733.549 1073.63 735.781 1077.07 735.781C1079.18 735.781 1080.52 735.205 1081.36 733.741L1079.44 732.397ZM1076.68 725.581C1078.15 725.581 1078.87 726.469 1078.96 728.221H1074.38C1074.5 726.589 1075.19 725.581 1076.68 725.581Z" fill="white"/>
<defs>
<linearGradient id="paint0_linear_1_225" x1="30.0555" y1="297.728" x2="307.106" y2="580.765" gradientUnits="userSpaceOnUse">
<stop stop-color="white"/>
<stop offset="1" stop-color="#0073AA"/>
</linearGradient>
<linearGradient id="paint1_linear_1_225" x1="435.672" y1="17.479" x2="720.913" y2="71.1696" gradientUnits="userSpaceOnUse">
<stop stop-color="white"/>
<stop offset="1" stop-color="#0073AA"/>
</linearGradient>
<linearGradient id="paint2_linear_1_225" x1="423.633" y1="286.677" x2="713.877" y2="288.6" gradientUnits="userSpaceOnUse">
<stop stop-color="white"/>
<stop offset="1" stop-color="#0073AA"/>
</linearGradient>
<linearGradient id="paint3_linear_1_225" x1="919.878" y1="326.056" x2="1201.73" y2="472.652" gradientUnits="userSpaceOnUse">
<stop stop-color="white"/>
<stop offset="1" stop-color="#0073AA"/>
</linearGradient>
<linearGradient id="paint4_linear_1_225" x1="919.878" y1="288.925" x2="1201.73" y2="435.521" gradientUnits="userSpaceOnUse">
<stop stop-color="white"/>
<stop offset="1" stop-color="#0073AA"/>
</linearGradient>
<linearGradient id="paint5_linear_1_225" x1="900.75" y1="251.793" x2="1201.72" y2="398.379" gradientUnits="userSpaceOnUse">
<stop stop-color="white"/>
<stop offset="1" stop-color="#0073AA"/>
</linearGradient>
<linearGradient id="paint6_linear_1_225" x1="454.653" y1="558.53" x2="600.06" y2="585.9" gradientUnits="userSpaceOnUse">
<stop stop-color="white"/>
<stop offset="1" stop-color="#0073AA"/>
</linearGradient>
<linearGradient id="paint7_linear_1_225" x1="38.8294" y1="92.7284" x2="315.621" y2="308.154" gradientUnits="userSpaceOnUse">
<stop stop-color="white"/>
<stop offset="1" stop-color="#0073AA"/>
</linearGradient>
<linearGradient id="paint8_linear_1_225" x1="38.8294" y1="24.789" x2="315.621" y2="240.214" gradientUnits="userSpaceOnUse">
<stop stop-color="white"/>
<stop offset="1" stop-color="#0073AA"/>
</linearGradient>
<linearGradient id="paint9_linear_1_225" x1="38.8294" y1="58.6611" x2="315.621" y2="274.086" gradientUnits="userSpaceOnUse">
<stop stop-color="white"/>
<stop offset="1" stop-color="#0073AA"/>
</linearGradient>
</defs>
</svg>
