<svg width="86" height="83" viewBox="0 0 86 83" fill="none" xmlns="http://www.w3.org/2000/svg">
<g clip-path="url(#clip0_7_127)">
<path d="M42.9989 0C19.2502 0 5.81579e-05 19.0831 5.81579e-05 42.6228C-0.0117181 49.7029 1.76511 56.6731 5.16847 62.8979C8.83583 57.7969 13.3134 53.319 18.4268 49.6386C18.4268 49.6386 19.8945 48.4605 23.0463 46.6114C22.4322 43.5911 18.7897 22.5806 34.8276 16.1781C34.8276 16.1781 41.3893 12.8189 51.0469 16.1781C53.0493 16.9616 54.9007 18.0807 56.5201 19.4866C56.5201 19.4866 65.8125 25.7323 65.3799 49.8553C65.117 64.3803 62.1932 74.9859 56.8038 82.9908C65.3166 80.1283 72.7107 74.6943 77.9474 67.4522C83.1841 60.2101 86.0002 51.5238 86.0001 42.6136C85.9977 19.0831 66.7476 0 42.9989 0Z" fill="#1A4973"/>
<path d="M61.1114 24.4549C60.556 23.6143 59.8877 22.8526 59.1249 22.1908C58.4143 21.1672 57.5598 20.2496 56.5872 19.4656C55.9848 19.7515 54.8148 20.3878 54.8148 20.3878C54.4752 20.5631 44.5454 25.7736 42.9963 35.0765C41.4239 25.6099 31.1685 20.3763 31.1685 20.3763C31.1685 20.3763 30.0055 19.7469 29.3961 19.4541C28.4136 20.2497 27.5518 21.1815 26.8374 22.2208C26.0888 22.8762 25.4324 23.6284 24.8859 24.4572C19.8896 33.5457 26.8235 39.079 26.8235 39.079C26.8235 39.079 31.4081 43.7985 36.8254 42.0509C37.6618 41.779 38.4552 41.3909 39.1816 40.8981L42.9986 45.5807L46.8249 40.9073C47.5537 41.4005 48.3493 41.7886 49.1882 42.0601C54.5962 43.8077 59.1901 39.0882 59.1901 39.0882C59.1901 39.0882 66.1076 33.5434 61.1114 24.4549ZM32.3245 35.9665C28.7401 34.3134 28.6424 27.9385 28.6424 27.9385C29.8673 27.5652 31.146 27.3954 32.4268 27.4359L31.8337 28.704C31.8337 28.704 30.2613 32.2568 33.6945 33.9607C36.8068 35.5031 38.7676 31.9156 39.1072 31.2286C39.6959 32.2808 40.1216 33.4147 40.3702 34.5924C40.3702 34.5924 35.9066 37.6127 32.3245 35.9665ZM53.6681 35.9665C50.0837 37.6219 45.6177 34.6039 45.6177 34.6039C45.8664 33.4209 46.2946 32.2821 46.8877 31.2263C47.2459 31.9502 49.1998 35.5054 52.2934 33.9722C55.7313 32.2684 54.1542 28.7155 54.1542 28.7155L53.5704 27.4475C54.8475 27.4028 56.1233 27.5688 57.3455 27.9385C57.3455 27.9385 57.2525 34.3088 53.6681 35.9665Z" fill="#1A4973"/>
</g>
<defs>
<clipPath id="clip0_7_127">
<rect width="86" height="83" fill="white"/>
</clipPath>
</defs>
</svg>
