<svg width="86" height="60" viewBox="0 0 86 60" fill="none" xmlns="http://www.w3.org/2000/svg">
<path d="M70.8216 2.21992e-06C68.8283 -0.000200089 66.8545 0.392409 65.0129 1.15541C63.1713 1.91841 61.4979 3.03685 60.0884 4.44686C58.679 5.85687 57.5609 7.53083 56.7982 9.37314C56.0355 11.2154 55.643 13.19 55.6432 15.1841V24.9694C55.6432 25.1805 55.6433 25.3899 55.6571 25.5994C57.0848 23.7373 58.7739 22.0912 60.6719 20.7121C61.2857 20.2462 61.9291 19.8207 62.5981 19.4383C62.3425 18.1676 60.8228 9.32484 67.5113 6.63398C67.5113 6.63398 70.2473 5.22154 74.2752 6.63398C75.1095 6.96194 75.8814 7.43085 76.557 8.02023C76.557 8.02023 80.4324 10.6495 80.2523 20.8045C80.0722 30.9596 76.8249 36.5862 70.8878 40.1273L70.9602 40.1489C74.9618 40.1132 78.7874 38.4978 81.6044 35.6544C84.4213 32.811 86.0017 28.9697 86.0015 24.9664V15.1841C86.0017 13.1899 85.6092 11.2152 84.8464 9.37278C84.0836 7.53037 82.9655 5.85635 81.5558 4.44631C80.1462 3.03628 78.4726 1.91787 76.6308 1.15497C74.7891 0.392058 72.8151 -0.000402414 70.8216 2.21992e-06Z" fill="#0A0A0A"/>
<path d="M78.4709 10.1135C78.2394 9.75988 77.9607 9.43962 77.6425 9.16157C77.3462 8.73074 76.99 8.34435 76.5847 8.01407C76.3338 8.13421 75.8457 8.39914 75.8457 8.39914C75.761 8.44227 71.5684 10.6372 70.9186 14.5803C70.2627 10.5956 65.9916 8.39452 65.9916 8.39452C65.9916 8.39452 65.5035 8.12805 65.2525 8.00945C64.8421 8.34224 64.4821 8.73293 64.184 9.16928C63.8716 9.44512 63.5977 9.76165 63.3695 10.1104C61.2863 13.9349 64.1778 16.2638 64.1778 16.2638C64.1778 16.2638 66.0901 18.2492 68.3442 17.5145C68.6928 17.4017 69.0235 17.2399 69.3266 17.0339L70.9232 19.0024L72.5184 17.0339C72.8221 17.241 73.1539 17.4033 73.5038 17.516C75.7594 18.2508 77.6702 16.2653 77.6702 16.2653C77.6702 16.2653 80.5541 13.938 78.4709 10.1135ZM66.4612 14.9546C64.9661 14.2584 64.9215 11.5752 64.9215 11.5752C65.4325 11.4197 65.9659 11.3505 66.4997 11.3703L66.2518 11.9033C66.2518 11.9033 65.5959 13.3989 67.0216 14.1151C68.3196 14.7651 69.1372 13.2541 69.2788 12.9661C69.5251 13.4085 69.7026 13.8858 69.8054 14.3816C69.8054 14.3816 67.9609 15.6508 66.4674 14.9546H66.4612ZM75.3607 14.9546C73.8672 15.6508 72.0041 14.3816 72.0041 14.3816C72.108 13.8837 72.2866 13.4044 72.5338 12.9599C72.6877 13.268 73.4976 14.7605 74.7879 14.1151C76.2214 13.3989 75.5578 11.9033 75.5578 11.9033L75.3145 11.3703C75.8473 11.3516 76.3795 11.4214 76.8896 11.5767C76.8896 11.5767 76.8619 14.2599 75.3668 14.9561L75.3607 14.9546Z" fill="#0A0A0A"/>
<path d="M24.9724 39.8331H0.00769806V31.7636L14.0636 16.4764C14.7924 15.696 15.3057 15.0121 15.6033 14.4247C15.9021 13.7746 16.045 13.0636 16.0206 12.3484C16.0206 11.2476 15.7188 10.3748 15.1152 9.72994C14.5117 9.08507 13.651 8.7611 12.5332 8.75802C11.6077 8.73511 10.7035 9.03701 9.97726 9.61134C9.26797 10.1802 8.91282 11.1475 8.91179 12.5132H0.00769806C0.00769806 10.0816 0.566612 7.96889 1.68443 6.17498C2.77264 4.40883 4.34267 2.99053 6.20962 2.08708C8.10961 1.15469 10.2221 0.688506 12.547 0.688506C14.9592 0.688506 17.1025 1.15932 18.9768 2.10094C20.8112 3.00615 22.3421 4.42674 23.3819 6.18884C24.4474 7.97248 24.9801 10.0452 24.9801 12.4069C24.9801 14.3076 24.6162 15.91 23.8885 17.2141C23.1607 18.5183 21.9182 20.0945 20.1608 21.9428L10.8965 31.7698H24.9801L24.9724 39.8331Z" fill="#0A0A0A"/>
<path d="M54.3207 9.07224L42.2078 39.8331H32.4107L44.5051 9.07224H36.2168V15.1717H27.7223V1.00118H54.3191L54.3207 9.07224Z" fill="#0A0A0A"/>
<path d="M11.3353 52.3032V53.5354C11.3415 54.1617 11.3085 54.7878 11.2367 55.41C11.168 55.9381 11.0195 56.4528 10.7964 56.9364C10.5404 57.478 10.1889 57.969 9.75863 58.3858C8.77014 59.3829 7.4116 59.8814 5.68303 59.8814H0.0708218V44.7328H5.68303C7.41263 44.7328 8.77116 45.2277 9.75863 46.2176C10.1889 46.6344 10.5404 47.1254 10.7964 47.667C11.0195 48.1506 11.168 48.6652 11.2367 49.1934C11.3085 49.8156 11.3415 50.4416 11.3353 51.0679V52.3032ZM7.61844 52.3032C7.63409 51.481 7.6084 50.6584 7.54145 49.8388C7.51172 49.5046 7.40244 49.1825 7.22273 48.8992C6.84192 48.3303 6.24502 48.0464 5.43206 48.0474H3.78766V56.5636H5.43206C6.24502 56.5636 6.84192 56.2797 7.22273 55.7119C7.33376 55.5487 7.41653 55.368 7.46755 55.1774C7.52905 54.878 7.56561 54.574 7.57686 54.2686C7.60458 53.8384 7.61844 53.1832 7.61844 52.3032Z" fill="#0A0A0A"/>
<path d="M23.4558 59.8814H13.166V44.7328H23.4558V48.0459H16.8828V50.5797H22.4997V53.8928H16.8828V56.5621H23.4558V59.8814Z" fill="#0A0A0A"/>
<path d="M36.531 53.2582C36.531 54.5038 36.4186 55.5111 36.1938 56.2802C35.9721 57.0431 35.5592 57.7366 34.9943 58.2949C34.609 58.6934 34.1669 59.0329 33.6825 59.3022C33.2271 59.5551 32.736 59.7374 32.2259 59.8429C31.6895 59.9488 31.1437 60.0004 30.5969 59.9969C28.9156 59.9969 27.515 59.4291 26.3951 58.2934C25.7595 57.6798 25.3192 56.8921 25.1295 56.0292C24.931 54.968 24.8408 53.8894 24.86 52.81V51.7949C24.841 50.7135 24.9313 49.6329 25.1295 48.5696C25.3187 47.7051 25.759 46.9158 26.3951 46.3008C26.9239 45.7569 27.5549 45.3229 28.252 45.0239C28.9984 44.7314 29.7955 44.5901 30.5969 44.608C32.3953 44.608 33.781 45.0891 34.7541 46.0512C35.7247 47.0111 36.3441 48.2698 36.5125 49.6247H32.7618C32.6088 49.0291 32.3666 48.5963 32.035 48.3262C31.7035 48.0562 31.2221 47.9211 30.5908 47.9211C29.9544 47.9211 29.4668 48.1424 29.1281 48.585C28.9933 48.762 28.8893 48.9604 28.8201 49.1718C28.7195 49.5207 28.6586 49.8798 28.6384 50.2423C28.5969 50.7229 28.5753 51.4114 28.5753 52.3032C28.5753 53.195 28.5969 53.8866 28.6384 54.3703C28.6588 54.7353 28.7198 55.0969 28.8201 55.4485C28.8879 55.6619 28.9921 55.862 29.1281 56.0399C29.4596 56.4692 29.9472 56.6838 30.5908 56.6838C31.3196 56.6838 31.8733 56.483 32.2521 56.0815C32.634 55.7006 32.8244 55.164 32.8233 54.4719V54.2532H30.5908V51.1511H36.531V53.2582Z" fill="#0A0A0A"/>
<path d="M50.3221 59.8814H46.0217L43.338 54.2424H42.0769V59.8814H38.3601V44.7328H44.3511C45.4381 44.7328 46.3686 44.9592 47.1426 45.412C47.8858 45.8351 48.4975 46.4556 48.9101 47.2049C49.3132 47.9396 49.5221 48.7651 49.5168 49.6031C49.5417 50.4706 49.2898 51.3236 48.7977 52.0383C48.355 52.6855 47.7567 53.2109 47.0579 53.5663L50.3221 59.8814ZM45.8046 49.6154C45.8064 49.351 45.7401 49.0905 45.6121 48.8592C45.4813 48.6223 45.2866 48.4269 45.0501 48.2954C44.7876 48.1496 44.4911 48.0763 44.191 48.0829H42.0769V51.1357H44.1971C44.4971 51.1427 44.7936 51.0699 45.0563 50.9247C45.2918 50.794 45.4864 50.6005 45.6183 50.3656C45.7454 50.1341 45.8096 49.8733 45.8046 49.6093V49.6154Z" fill="#0A0A0A"/>
<path d="M61.7666 59.8814H51.4768V44.7328H61.7666V48.0459H55.1937V50.5797H60.8105V53.8928H55.1937V56.5621H61.7666V59.8814Z" fill="#0A0A0A"/>
<path d="M73.9472 59.8814H63.6589V44.7328H73.9472V48.0459H67.3758V50.5797H72.9895V53.8928H67.3727V56.5621H73.9441L73.9472 59.8814Z" fill="#0A0A0A"/>
<path d="M85.9954 55.2436C86.018 56.161 85.7425 57.0609 85.2101 57.8082C84.6719 58.5414 83.9382 59.1082 83.093 59.4439C82.1585 59.8235 81.1577 60.0126 80.1491 60C79.0425 60.0205 77.9394 59.8698 76.8788 59.5533C75.9438 59.2499 75.0977 58.7209 74.4153 58.013L76.8034 55.6241C77.2155 56.0202 77.724 56.3016 78.2784 56.4404C78.8972 56.6112 79.5364 56.6967 80.1784 56.6946C81.6236 56.6946 82.3468 56.2412 82.3478 55.3345C82.3578 55.1726 82.3357 55.0104 82.2829 54.8571C82.23 54.7038 82.1475 54.5624 82.0399 54.4411C81.8397 54.2358 81.5077 54.1007 81.0437 54.036L79.2161 53.7757C77.8734 53.5899 76.8598 53.1432 76.1752 52.4357C75.4905 51.7282 75.1441 50.7142 75.1359 49.3936C75.1222 48.5254 75.3545 47.671 75.8056 46.9292C76.2699 46.1912 76.9371 45.603 77.7272 45.2349C78.6421 44.8076 79.6431 44.5967 80.6526 44.6188C81.6449 44.5996 82.6335 44.7453 83.5781 45.0501C84.4037 45.3317 85.1519 45.8027 85.7629 46.4255L83.4272 48.7621C83.0864 48.4028 82.6507 48.1475 82.1708 48.0259C81.6383 47.9138 81.095 47.8621 80.551 47.8718C79.9567 47.8718 79.5025 48.0151 79.1914 48.2985C79.0485 48.4182 78.9332 48.5675 78.8535 48.7361C78.7737 48.9047 78.7314 49.0885 78.7295 49.275C78.7299 49.4074 78.7574 49.5384 78.8103 49.6597C78.8633 49.7811 78.9406 49.8902 79.0375 49.9805C79.3248 50.2396 79.6896 50.3966 80.0752 50.4272L81.9029 50.6767C83.2321 50.8708 84.2252 51.2897 84.8822 51.9336C85.2792 52.3168 85.574 52.7934 85.7398 53.3198C85.9234 53.9441 86.0096 54.593 85.9954 55.2436Z" fill="#0A0A0A"/>
</svg>
